<svg width="25" height="15" viewBox="0 0 25 15" fill="none" xmlns="http://www.w3.org/2000/svg">
<g clip-path="url(#clip0_21703_16)">
<path d="M5 0H2.5V12.5H5V0Z" fill="black"/>
<path d="M10 1.25V3.75L17.5 3.75V1.25L10 1.25Z" fill="black"/>
<path d="M10 6.25V8.75H20V6.25H10Z" fill="black"/>
<path d="M10 11.25V13.75L25 13.75V11.25H10Z" fill="black"/>
<path d="M3.75001 15L0.502411 10.3125H6.99761L3.75001 15Z" fill="black"/>
<mask id="mask0_21703_16" style="mask-type:luminance" maskUnits="userSpaceOnUse" x="0" y="0" width="25" height="15">
<path d="M25 0H0V15H25V0Z" fill="white"/>
</mask>
<g mask="url(#mask0_21703_16)">
<path d="M5 0H2.5V12.5H5V0Z" fill="black"/>
<path d="M10 1.25V3.75H17.5V1.25H10Z" fill="black"/>
<path d="M10 6.25V8.75H20V6.25H10Z" fill="black"/>
<path d="M10 11.25V13.75H25V11.25H10Z" fill="black"/>
<path d="M3.75001 15L0.502411 10.3125H6.99761L3.75001 15Z" fill="black"/>
</g>
</g>
<defs>
<clipPath id="clip0_21703_16">
<rect width="25" height="15" fill="white"/>
</clipPath>
</defs>
</svg>
